{"title":"What History Forgot S01E05 Verge of Destruction DSR EN-SUB x264","uid":12103917,"size":333481790,"categoryP":"video","categoryS":"tv_shows","magnet":"?xt=urn:btih:9b1a8aaaf573ee501d3fcd184923e0974253ea13&amp;dn=+What+History+Forgot+S01E05+Verge+of+Destruction+DSR+EN-SUB+x264&amp;tr=udp%3A%2F%2Ftracker.openbittorrent.com%3A80&amp;tr=udp%3A%2F%2Fopen.demonii.com%3A1337&amp;tr=udp%3A%2F%2Ftracker.coppersurfer.tk%3A6969&amp;tr=udp%3A%2F%2Fexodus.desync.com%3A6969","seeders":0,"leechers":0,"uploader":"Mulva1989","files":2,"time":1436409307,"description":"What History Forgot S01E05 Verge of Destruction DSR EN-SUB x264-W4F\n\nDuring World War II, the world was on the verge of total destruction...but did you know that the war was also full of top secret missions that most people know nothing about? A hidden bomb shelter inside of the Brooklyn Bridge; a clandestine cover-up after a D-Day rehearsal leaves dozens of Allied troops dead; and contrary to what most people have been led to believe, those A-bombs the United States dropped on Hiroshima and Nagasaki weren't the deadliest bombs in WWII...the firebombings in Tokyo were.\n\nScreens @ &lt;a href=&quot;\nhttp://extraimago.com/images/2015/07/09/what.history.forgot.s01e05.verge.of.destruction.dsr.x264-w4f.mp4_snapshot_33.42_2015.07.09_02.16.59.jpg&quot; rel=&quot;nofollow&quot; target=&quot;_NEW&quot;&gt;\nhttp://extraimago.com/images/2015/07/09/what.history.forgot.s01e05.verge.of.destruction.dsr.x264-w4f.mp4_snapshot_33.42_2015.07.09_02.16.59.jpg&lt;/a&gt;\n &lt;a href=&quot;\nhttp://extraimago.com/images/2015/07/09/what.history.forgot.s01e05.verge.of.destruction.dsr.x264-w4f.mp4.jpg&quot; rel=&quot;nofollow&quot; target=&quot;_NEW&quot;&gt;\nhttp://extraimago.com/images/2015/07/09/what.history.forgot.s01e05.verge.of.destruction.dsr.x264-w4f.mp4.jpg&lt;/a&gt;\n\nFormat : MPEG-4\nFormat profile : Base Media\nCodec ID : isom\nFile size : 318 MiB\nDuration : 44mn 34s\nOverall bit rate mode : Variable\nOverall bit rate : 998 Kbps\nEncoded date : UTC 2015-07-05 19:41:49\nTagged date : UTC 2015-07-05 19:41:49\n\nVideo\nID : 1\nFormat : AVC\nFormat/Info : Advanced Video Codec\nFormat profile : &lt;a class=&quot;__cf_email__&quot; href=&quot;/cdn-cgi/l/email-protection&quot; data-cfemail=&quot;dc94b5bbb49c90eff2ed&quot;&gt;[email&amp;#160;protected]&lt;/a&gt;&lt;script data-cfhash='f9e31' type=&quot;text/javascript&quot;&gt;\n/* &lt;![CDATA[ */!function(){try{var t=&quot;currentScript&quot;in document?document.currentScript:function(){for(var t=document.getElementsByTagName(&quot;script&quot;),e=t.length;e--;)if(t[e].getAttribute(&quot;data-cfhash&quot;))return t[e]}();if(t&amp;&amp;t.previousSibling){var e,r,n,i,c=t.previousSibling,a=c.getAttribute(&quot;data-cfemail&quot;);if(a){for(e=&quot;&quot;,r=parseInt(a.substr(0,2),16),n=2;a.length-n;n+=2)i=parseInt(a.substr(n,2),16)^r,e+=String.fromCharCode(i);e=document.createTextNode(e),c.parentNode.replaceChild(e,c)}t.parentNode.removeChild(t);}}catch(u){}}()/* ]]&gt; */&lt;/script&gt;\nFormat settings, CABAC : Yes\nFormat settings, ReFrames : 5 frames\nCodec ID : avc1\nCodec ID/Info : Advanced Video Coding\nDuration : 44mn 32s\nBit rate : 866 Kbps\nMaximum bit rate : 3 762 Kbps\nWidth : 640 pixels\nHeight : 358 pixels\nDisplay aspect ratio : 16:9\nFrame rate mode : Constant\nFrame rate : 29.970 fps\nColor space : YUV\nChroma subsampling : 4:2:0\nBit depth : 8 bits\nScan type : Progressive\nBits/(Pixel*Frame) : 0.126\nStream size : 276 MiB (87%)\nWriting library : x264 core 146 r2538 121396c\nEncoding settings : cabac=1 / ref=5 / deblock=1:-1:-1 / analyse=0x3:0x113 / me=umh / subme=8 / psy=1 / psy_rd=1.00:0.15 / mixed_ref=1 / me_range=16 / chroma_me=1 / trellis=1 / 8x8dct=1 / cqm=0 / deadzone=21,11 / fast_pskip=1 / chroma_qp_offset=-3 / threads=12 / lookahead_threads=2 / sliced_threads=0 / nr=0 / decimate=1 / interlaced=0 / bluray_compat=0 / constrained_intra=0 / bframes=3 / b_pyramid=2 / b_adapt=2 / b_bias=0 / direct=3 / weightb=1 / open_gop=0 / weightp=2 / keyint=250 / keyint_min=25 / scenecut=40 / intra_refresh=0 / rc_lookahead=50 / rc=crf / mbtree=1 / crf=21.0 / qcomp=0.60 / qpmin=0 / qpmax=69 / qpstep=4 / ip_ratio=1.40 / aq=1:1.00\nEncoded date : UTC 2015-07-05 19:41:49\nTagged date : UTC 2015-07-05 19:41:52\n\nAudio\nID : 2\nFormat : AAC\nFormat/Info : Advanced Audio Codec\nFormat profile : LC\nCodec ID : 40\nDuration : 44mn 32s\nBit rate mode : Variable\nBit rate : 128 Kbps\nMaximum bit rate : 162 Kbps\nChannel(s) : 2 channels\nChannel positions : Front: L R\nSampling rate : 48.0 KHz\nCompression mode : Lossy\nStream size : 40.7 MiB (13%)\nLanguage : English\nEncoded date : UTC 2015-07-05 19:41:51\nTagged date : UTC 2015-07-05 19:41:52\n\nText\nID : 3\nFormat : Timed Text\nCodec ID : tx3g\nDuration : 44mn 34s\nBit rate mode : Variable\nBit rate : 157 bps\nStream size : 51.1 KiB (0%)\nLanguage : English\nEncoded date : UTC 2015-07-05 19:41:51\nTagged date : UTC 2015-07-05 19:41:52","torrent":{"xt":"urn:btih:9b1a8aaaf573ee501d3fcd184923e0974253ea13","amp;dn":"+What+History+Forgot+S01E05+Verge+of+Destruction+DSR+EN-SUB+x264","amp;tr":["udp%3A%2F%2Ftracker.openbittorrent.com%3A80","udp%3A%2F%2Fopen.demonii.com%3A1337","udp%3A%2F%2Ftracker.coppersurfer.tk%3A6969","udp%3A%2F%2Fexodus.desync.com%3A6969"],"infoHash":"9b1a8aaaf573ee501d3fcd184923e0974253ea13","infoHashBuffer":{"type":"Buffer","data":[155,26,138,170,245,115,238,80,29,63,205,24,73,35,224,151,66,83,234,19]},"announce":[],"urlList":[]}}